<?xml version="1.0"?>
<svg width="700" height="500" xml:space="preserve" xmlns="http://www.w3.org/2000/svg"
     xmlns:xlink="http://www.w3.org/1999/xlink">
	
	<defs>
		<g id="ruota">
			<!-- bordo esterno e interno-->
			<circle cx="150" cy="400" r="80" style="stroke:black; stroke-width:5; fill:none"/>
			<circle cx="150" cy="400" r="60" style="stroke:black; stroke-width:3; fill:none"/>
			<!-- raggiera-->
			<g id="asse">
				<line x1="150" y1="340" x2="150" y2="460" style="stroke:black; stroke-width:5;"/>
				<animateTransform attributeName="transform" attributeType="XML" type="rotate" from="0 150 400" to="359 150 400" begin="0s" dur="5s" repeatDur="indefinite"/>
			</g>
			<use xlink:href="#asse" transform="rotate(22.5,150,400)"/>
			<use xlink:href="#asse" transform="rotate(22.5,150,400)"/>
			<use xlink:href="#asse" transform="rotate(45,150,400)"/>
			<use xlink:href="#asse" transform="rotate(67.5,150,400)"/>
			<use xlink:href="#asse" transform="rotate(90,150,400)"/>
			<use xlink:href="#asse" transform="rotate(112.5,150,400)"/>
			<use xlink:href="#asse" transform="rotate(135,150,400)"/>
			<use xlink:href="#asse" transform="rotate(157.5,150,400)"/>
			<!-- disco-->
			<circle cx="150" cy="400" r="10" style="fill:white"/>
			<circle cx="150" cy="400" r="4"/>
			<!-- bulloni -->
			<symbol>
				<g id="bullone">
					<circle cx="150" cy="393" r="2"/>
				</g>
			</symbol>
			<use xlink:href="#bullone">
				<animateTransform attributeName="transform" attributeType="XML" type="rotate" from="0 150 400" to="359 150 400" begin="0s" dur="5s" repeatDur="indefinite" />
			</use>
			<use xlink:href="#bullone" x="0" y="14">
				<animateTransform attributeName="transform" attributeType="XML" type="rotate" from="0 150 400" to="359 150 400" begin="0s" dur="5s" repeatDur="indefinite"/>
			</use>
			<use xlink:href="#bullone" x="-7" y="7">
				<animateTransform attributeName="transform" attributeType="XML" type="rotate" from="0 150 400" to="359 150 400" begin="0s" dur="5s" repeatDur="indefinite"/>
			</use>
			<use xlink:href="#bullone" x="7" y="7">
				<animateTransform attributeName="transform" attributeType="XML" type="rotate" from="0 150 400" to="359 150 400" begin="0s" dur="5s" repeatDur="indefinite"/>
			</use>
		</g>
	</defs>
	<rect id="bg" width="700" height="500" x="0" y="0" fill="#ACE270"/>
	<!-- ruota posteriore-->
	<use xlink:href="#ruota"/>
	<!-- ruota anteriore-->
	<use xlink:href="#ruota" x="453"/>
	<!-- carrozzeria-->
	<path d="M 180,303 A 100,50,85,0,1,170, 250 L 170,240 A 100,50,0,0,0,200,247 L 250,247 L 250,150 L 265,150 L 265,247
	L 340,247 L 340,150 L 355,150 L 355,247 L 430,247 L 430,160 L 445,160 L 445,247 L 603,260 L 603,295 L 450,380 L 250,380" style="stroke:black; stroke-width:3; fill:rgb(59,63,63)"/>
	<!-- scaletta-->
	<path d="M 72,355 A 90,90,0,0,1,240,400 L 470,400 Q 570,275,648,322 L 650,320 Q 590,260,500,340 L 450,380 L 250,380 
	A 102,102,0,0,0,62,349 L 72,355" style="stroke:black; stroke-width:3; fill:rgb(115,124,124); "/>
	<!-- tendina posteriore-->
	<rect x="190" y="150" width="60" height="50" style="stroke:black; stroke-width:2; fill-opacity:0.6; fill:rgb(47,51,47)"/>
	<line x1="220" y1="200" x2="220" y2="215" style="stroke:black; stroke-width:2"/>
	<circle cx="220" cy="215" r="2" style="fill:black;"/>
	<!-- cappotta-->
	<path d="M 170,250 L 170,150 A 275,150,0,0,1,465,150 L 465,160 L 430,160 A 95,30,0,0,0,355,150 L 265,150 A 45,15,-10,0,0,195,165
	L 195,220 A 15,3,80,0,0,200,247" style="stroke:black; stroke-width:3; fill:black"/>
	<!-- portiere-->
	<path d="M 257,150 L 257,350 L 269,360 L 335,360 L 347,350 L 347,150 M 347,350 L 359,360 L 425,360 L 437,350 L 437,150" style="stroke:black; stroke-width:2; fill:none"/>
	<!-- maniglie portiere-->
	<g id="maniglia_post">
		<circle cx="335" cy="260" r="2" style="stroke:black; stroke-width:1; fill:black"/>
		<path d="M 335,259 h -10" style="stroke:black; stroke-width:2; fill:none"/>
	</g>
	<use xlink:href="#maniglia_post" x="90"/>
	<!-- motore-->
	<path d="M 437,350 h 50 l -25,0 v -75 h 140 m -110,20 v 30 m 10,0 v -30 m 10,0 v 30 m 10,-3 v -27 m 10,0 v 21" style="stroke:black; stroke-width:2; fill:none"/>
	<!-- radiatore -->
	<path d="M 603,260 h 10 v 37" style="stroke:black; stroke-width:2; fill:none"/>
	<path d="M 606,260 v -10 h 5 v 10 M 603,253 h 11" style="stroke:black; stroke-width:2; fill:black"/>
	<!-- luci anteriori-->
	<path d="M 603,295 A15,10,-8,0,1,620,275 v 25 Z" style="stroke:black; stroke-width:2; fill:rgb(59,80,74)"/>
	<!-- faretto-->
	<path d="M 460,265 v -40 h 8 v 40 h -8" style="stroke:black; stroke-width:2; fill:rgb(59,80,74)"/>
	<path d="M 455,245 h 18 v -15 h -18 v 15 v -5 h 18 v -5 h -18" style="stroke:black; stroke-width:2; fill:white"/>
	<!-- sbarra posteriore-->
	<path d="M 100,310 v -45 h 15 v 40 Z " style="stroke:black; stroke-width:2; fill:rgb(59,80,74)"/>
	<!-- volante-->
	<line x1="400" y1="247" x2="420" y2="220" style="stroke:black; stroke-width:4"/>
	
</svg>
